<svg width="640" height="360" viewBox="0 0 640 360" fill="none" xmlns="http://www.w3.org/2000/svg">
  <rect width="640" height="360" rx="32" fill="url(#bg)"/>
  <rect x="70" y="0" width="500" height="360" fill="url(#glass)" fill-opacity="0.2"/>
  <path d="M126 360L292 158H350L180 360H126Z" fill="#2D333C" fill-opacity="0.58"/>
  <path d="M234 360L400 158H458L288 360H234Z" fill="#414850" fill-opacity="0.6"/>
  <path d="M342 360L508 158H566L396 360H342Z" fill="#252A30" fill-opacity="0.62"/>
  <rect x="0" y="290" width="640" height="70" fill="url(#floor)"/>
  <ellipse cx="330" cy="320" rx="122" ry="20" fill="#1F2431" fill-opacity="0.35"/>
  <circle cx="335" cy="88" r="46" fill="#E7C3A7"/>
  <path d="M289 87C289 57.1766 313.177 33 343 33H348C377.823 33 402 57.1766 402 87V101H289V87Z" fill="#121822"/>
  <path d="M271 164C271 126.444 301.444 96 339 96V96C376.556 96 407 126.444 407 164V184H271V164Z" fill="#F2F5FB"/>
  <path d="M252 323L278 153H401L425 323H252Z" fill="#172131"/>
  <path d="M306 153H372V323H306V153Z" fill="#0E1625"/>
  <path d="M318 153L338 193L361 153H318Z" fill="#F8FAFD"/>
  <path d="M338 193L318 323H361L338 193Z" fill="#284B9D"/>
  <path d="M335 199L323 228H348L335 199Z" fill="#F8FAFD"/>
  <rect x="312" y="120" width="54" height="56" rx="14" fill="#E8EDF5"/>
  <path d="M230 234C237.732 214.117 255.794 201 277.125 201H283V323H203L230 234Z" fill="#172131"/>
  <path d="M446 234C438.268 214.117 420.206 201 398.875 201H393V323H473L446 234Z" fill="#172131"/>
  <defs>
    <linearGradient id="bg" x1="92" y1="36" x2="516" y2="316" gradientUnits="userSpaceOnUse">
      <stop stop-color="#E9EEF7"/>
      <stop offset="1" stop-color="#A8B6D0"/>
    </linearGradient>
    <linearGradient id="glass" x1="320" y1="0" x2="320" y2="360" gradientUnits="userSpaceOnUse">
      <stop stop-color="white"/>
      <stop offset="1" stop-color="white" stop-opacity="0"/>
    </linearGradient>
    <linearGradient id="floor" x1="320" y1="290" x2="320" y2="360" gradientUnits="userSpaceOnUse">
      <stop stop-color="#4F5560"/>
      <stop offset="1" stop-color="#262B34"/>
    </linearGradient>
  </defs>
</svg>
